<?xml version="1.0" encoding="UTF-8" standalone="no"?>
<!-- Created with Inkscape (http://www.inkscape.org/) -->

<svg
   width="640mm"
   height="640mm"
   viewBox="0 0 640 640"
   version="1.1"
   id="svg1"
   xml:space="preserve"
   inkscape:version="1.3.2 (091e20e, 2023-11-25, custom)"
   sodipodi:docname="paparascii.svg"
   xmlns:inkscape="http://www.inkscape.org/namespaces/inkscape"
   xmlns:sodipodi="http://sodipodi.sourceforge.net/DTD/sodipodi-0.dtd"
   xmlns="http://www.w3.org/2000/svg"
   xmlns:svg="http://www.w3.org/2000/svg"><sodipodi:namedview
     id="namedview1"
     pagecolor="#505050"
     bordercolor="#ffffff"
     borderopacity="1"
     inkscape:showpageshadow="0"
     inkscape:pageopacity="0"
     inkscape:pagecheckerboard="1"
     inkscape:deskcolor="#505050"
     inkscape:document-units="px"
     inkscape:zoom="0.5"
     inkscape:cx="731"
     inkscape:cy="1418"
     inkscape:window-width="3414"
     inkscape:window-height="2000"
     inkscape:window-x="13"
     inkscape:window-y="60"
     inkscape:window-maximized="0"
     inkscape:current-layer="layer1" /><defs
     id="defs1"><clipPath
       clipPathUnits="userSpaceOnUse"
       id="clipPath3"><rect
         style="fill:#44aa00;fill-opacity:0.500982;stroke-width:0.1"
         id="rect3"
         width="640"
         height="640"
         x="-8.90096e-06"
         y="-8.90096e-06"
         rx="0.60000002"
         ry="0.69999999" /></clipPath></defs><g
     inkscape:label="Layer 1"
     inkscape:groupmode="layer"
     id="layer1"><g
       id="g5"
       style="stroke:#ffffff;stroke-opacity:0.32252559;stroke-width:5.29166652;stroke-dasharray:none"><path
         style="fill:#000000;stroke-width:5.29166652;stroke:#ffffff;stroke-opacity:0.32252559;stroke-dasharray:none"
         d="m 29.237463,283.27959 v -168.5804 h 40.211836 40.211841 v 17.74355 17.74353 l -22.039178,0.42912 -22.039179,0.42911 -0.395295,132.62175 -0.395283,132.62173 h 22.434474 22.434461 v 17.78601 17.786 H 69.449299 29.237463 Z M 530.29363,451.47334 c -0.025,-0.21266 -0.11898,-8.04237 -0.20912,-17.39935 l -0.16388,-17.01271 22.64357,-0.42804 22.64356,-0.42805 -0.39527,-132.58034 -0.39528,-132.58035 -22.0392,-0.42911 -22.03917,-0.42912 v -17.74353 -17.74355 h 40.21184 40.21184 v 168.5804 168.5804 h -40.21184 c -22.11651,0 -40.23219,-0.17399 -40.25705,-0.38665 z M 362.89342,406.87223 c -50.48148,-7.39005 -93.04518,-45.34189 -106.52225,-94.98037 -5.14299,-18.94258 -4.78901,-49.22808 0.7919,-67.75302 7.29126,-24.20222 17.81023,-41.18123 36.34547,-58.66643 50.81884,-47.93991 130.5252,-46.65729 180.29134,2.90121 37.58955,37.43273 48.12872,94.59501 26.47015,143.56884 -9.48129,21.4389 -29.41075,43.7942 -51.08497,57.30314 -25.1664,15.68554 -56.22016,22.02883 -86.29164,17.62663 z m 42.39382,-50.88389 c 16.44654,-5.14538 27.61922,-12.81877 39.43477,-27.08379 8.13292,-9.81895 12.3417,-18.24678 15.22985,-30.49683 10.55073,-44.75094 -17.04078,-88.40563 -61.84811,-97.85483 -5.95444,-1.2557 -13.26217,-2.28309 -16.2394,-2.28309 -2.97721,0 -10.28494,1.02739 -16.23938,2.28309 -43.17618,9.10521 -70.67059,50.24042 -62.64732,93.72852 5.19694,28.16864 29.83046,54.92169 57.396,62.3345 12.47728,3.35532 33.10397,3.06711 44.91359,-0.62757 z m -243.65333,6.1882 c -15.13894,-4.7984 -22.57392,-25.05242 -14.44206,-39.34238 4.09099,-7.18901 14.51381,-13.27795 22.64365,-13.22825 7.8524,0.048 17.60581,4.90783 21.8709,10.89758 8.24289,11.57609 4.76354,31.26823 -6.78589,38.40617 -6.12709,3.78676 -16.88486,5.29597 -23.2866,3.26688 z m -1.77196,-105.0032 c -6.97154,-3.16672 -14.1283,-10.79964 -15.59128,-16.62857 -1.82419,-7.26818 0.31079,-18.75644 4.50841,-24.25982 11.73319,-15.38301 38.12115,-12.75728 45.33637,4.51117 2.77519,6.64196 2.76241,18.17086 -0.026,23.50839 -4.55245,8.71409 -15.73967,15.83595 -24.72795,15.74197 -1.78699,-0.0186 -6.06179,-1.31159 -9.49951,-2.87314 z M 265.5473,123.51701 c 2.30335,-5.35781 10.79964,-25.176844 18.88067,-44.042274 l 14.6928,-34.300782 82.74358,-0.01541 82.7436,-0.01541 17.0127,39.561488 c 9.35699,21.758808 17.89372,41.606948 18.97051,44.106968 l 1.95782,4.54549 -17.96211,-0.43595 -17.9621,-0.43595 -10.68481,-25.51904 C 450.06331,92.930652 444.71891,80.49357 444.06352,79.328172 443.0948,77.605659 431.50961,77.103109 382.13547,76.64185 l -60.7364,-0.567424 -4.32783,9.646076 c -2.3803,5.30533 -7.74092,18.160978 -11.91245,28.568078 l -7.58464,18.92201 -18.10737,0.024 -18.10734,0.0241 z"
         id="path5"
         sodipodi:nodetypes="cccccccccccccccccsscccccccccccccssssssssssssssssssssssssssssscssssscccsscccssscsscccs" /><text
         xml:space="preserve"
         style="font-style:normal;font-variant:normal;font-weight:bold;font-stretch:condensed;font-size:109.538px;font-family:Arial;-inkscape-font-specification:'Arial, Bold Condensed';font-variant-ligatures:normal;font-variant-caps:normal;font-variant-numeric:normal;font-variant-east-asian:normal;text-align:center;text-anchor:middle;opacity:1;fill:#000000;fill-opacity:1;stroke-width:5.29166653;stroke:#ffffff;stroke-opacity:0.32252559;stroke-dasharray:none"
         x="290.34726"
         y="621.0141"
         id="text5"
         transform="scale(1.1009117,0.90833806)"><tspan
           sodipodi:role="line"
           id="tspan5"
           x="290.34726"
           y="621.0141"
           style="font-style:normal;font-variant:normal;font-weight:bold;font-stretch:condensed;font-size:109.538px;font-family:Arial;-inkscape-font-specification:'Arial, Bold Condensed';font-variant-ligatures:normal;font-variant-caps:normal;font-variant-numeric:normal;font-variant-east-asian:normal;stroke-width:5.29166653;stroke:#ffffff;stroke-opacity:0.32252559;stroke-dasharray:none">PAPARASCII</tspan></text></g><g
       id="g4"><path
         style="fill:#000000;stroke-width:1.31166"
         d="m 29.237463,283.27959 v -168.5804 h 40.211836 40.211841 v 17.74355 17.74353 l -22.039178,0.42912 -22.039179,0.42911 -0.395295,132.62175 -0.395283,132.62173 h 22.434474 22.434461 v 17.78601 17.786 H 69.449299 29.237463 Z M 530.29363,451.47334 c -0.025,-0.21266 -0.11898,-8.04237 -0.20912,-17.39935 l -0.16388,-17.01271 22.64357,-0.42804 22.64356,-0.42805 -0.39527,-132.58034 -0.39528,-132.58035 -22.0392,-0.42911 -22.03917,-0.42912 v -17.74353 -17.74355 h 40.21184 40.21184 v 168.5804 168.5804 h -40.21184 c -22.11651,0 -40.23219,-0.17399 -40.25705,-0.38665 z M 362.89342,406.87223 c -50.48148,-7.39005 -93.04518,-45.34189 -106.52225,-94.98037 -5.14299,-18.94258 -4.78901,-49.22808 0.7919,-67.75302 7.29126,-24.20222 17.81023,-41.18123 36.34547,-58.66643 50.81884,-47.93991 130.5252,-46.65729 180.29134,2.90121 37.58955,37.43273 48.12872,94.59501 26.47015,143.56884 -9.48129,21.4389 -29.41075,43.7942 -51.08497,57.30314 -25.1664,15.68554 -56.22016,22.02883 -86.29164,17.62663 z m 42.39382,-50.88389 c 16.44654,-5.14538 27.61922,-12.81877 39.43477,-27.08379 8.13292,-9.81895 12.3417,-18.24678 15.22985,-30.49683 10.55073,-44.75094 -17.04078,-88.40563 -61.84811,-97.85483 -5.95444,-1.2557 -13.26217,-2.28309 -16.2394,-2.28309 -2.97721,0 -10.28494,1.02739 -16.23938,2.28309 -43.17618,9.10521 -70.67059,50.24042 -62.64732,93.72852 5.19694,28.16864 29.83046,54.92169 57.396,62.3345 12.47728,3.35532 33.10397,3.06711 44.91359,-0.62757 z m -243.65333,6.1882 c -15.13894,-4.7984 -22.57392,-25.05242 -14.44206,-39.34238 4.09099,-7.18901 14.51381,-13.27795 22.64365,-13.22825 7.8524,0.048 17.60581,4.90783 21.8709,10.89758 8.24289,11.57609 4.76354,31.26823 -6.78589,38.40617 -6.12709,3.78676 -16.88486,5.29597 -23.2866,3.26688 z m -1.77196,-105.0032 c -6.97154,-3.16672 -14.1283,-10.79964 -15.59128,-16.62857 -1.82419,-7.26818 0.31079,-18.75644 4.50841,-24.25982 11.73319,-15.38301 38.12115,-12.75728 45.33637,4.51117 2.77519,6.64196 2.76241,18.17086 -0.026,23.50839 -4.55245,8.71409 -15.73967,15.83595 -24.72795,15.74197 -1.78699,-0.0186 -6.06179,-1.31159 -9.49951,-2.87314 z M 265.5473,123.51701 c 2.30335,-5.35781 10.79964,-25.176844 18.88067,-44.042274 l 14.6928,-34.300782 82.74358,-0.01541 82.7436,-0.01541 17.0127,39.561488 c 9.35699,21.758808 17.89372,41.606948 18.97051,44.106968 l 1.95782,4.54549 -17.96211,-0.43595 -17.9621,-0.43595 -10.68481,-25.51904 C 450.06331,92.930652 444.71891,80.49357 444.06352,79.328172 443.0948,77.605659 431.50961,77.103109 382.13547,76.64185 l -60.7364,-0.567424 -4.32783,9.646076 c -2.3803,5.30533 -7.74092,18.160978 -11.91245,28.568078 l -7.58464,18.92201 -18.10737,0.024 -18.10734,0.0241 z"
         id="path4"
         sodipodi:nodetypes="cccccccccccccccccsscccccccccccccssssssssssssssssssssssssssssscssssscccsscccssscsscccs" /><text
         xml:space="preserve"
         style="font-style:normal;font-variant:normal;font-weight:bold;font-stretch:condensed;font-size:109.538px;font-family:Arial;-inkscape-font-specification:'Arial, Bold Condensed';font-variant-ligatures:normal;font-variant-caps:normal;font-variant-numeric:normal;font-variant-east-asian:normal;text-align:center;text-anchor:middle;opacity:1;fill:#000000;fill-opacity:1;stroke-width:0.215627"
         x="290.34726"
         y="621.0141"
         id="text4"
         transform="scale(1.1009117,0.90833806)"><tspan
           sodipodi:role="line"
           id="tspan4"
           x="290.34726"
           y="621.0141"
           style="font-style:normal;font-variant:normal;font-weight:bold;font-stretch:condensed;font-size:109.538px;font-family:Arial;-inkscape-font-specification:'Arial, Bold Condensed';font-variant-ligatures:normal;font-variant-caps:normal;font-variant-numeric:normal;font-variant-east-asian:normal;stroke-width:0.215627">PAPARASCII</tspan></text></g></g></svg>
